Open Antique Tuscan Regular-18.ufo
<glyph name="hyphen" format="1">
  <advance width="400"/>
  <unicode hex="002D"/>
  <outline>
    <contour>
      <point x="320" y="450" type="curve"/>
      <point x="320" y="430"/>
      <point x="310" y="420"/>
      <point x="310" y="375" type="curve"/>
      <point x="310" y="330"/>
      <point x="320" y="320"/>
      <point x="320" y="300" type="curve"/>
      <point x="300" y="300"/>
      <point x="290" y="310"/>
      <point x="170" y="310" type="curve"/>
      <point x="50" y="310"/>
      <point x="40" y="300"/>
      <point x="20" y="300" type="curve"/>
      <point x="20" y="320"/>
      <point x="30" y="330"/>
      <point x="30" y="374" type="curve"/>
      <point x="30" y="420"/>
      <point x="20" y="430"/>
      <point x="20" y="450" type="curve"/>
      <point x="40" y="450"/>
      <point x="50" y="440"/>
      <point x="170" y="440" type="curve"/>
      <point x="290" y="440"/>
      <point x="300" y="450"/>
    </contour>
  </outline>
</glyph>
<glyph name="one" format="1">
  <advance width="550"/>
  <unicode hex="0031"/>
  <outline>
    <contour>
      <point x="140" y="375" type="curve"/>
      <point x="140" y="270"/>
      <point x="120" y="140"/>
      <point x="70" y="140" type="curve"/>
      <point x="40" y="140"/>
      <point x="30" y="150"/>
      <point x="20" y="150" type="curve"/>
      <point x="20" y="130"/>
      <point x="30" y="120"/>
      <point x="30" y="75" type="curve" smooth="yes"/>
      <point x="30" y="30"/>
      <point x="20" y="20"/>
      <point x="20" y="0" type="curve"/>
      <point x="470" y="0" type="line"/>
      <point x="470" y="20"/>
      <point x="460" y="30"/>
      <point x="460" y="75" type="curve" smooth="yes"/>
      <point x="460" y="120"/>
      <point x="470" y="130"/>
      <point x="470" y="150" type="curve"/>
      <point x="460" y="150"/>
      <point x="450" y="140"/>
      <point x="420" y="140" type="curve"/>
      <point x="370" y="140"/>
      <point x="350" y="270"/>
      <point x="350" y="375" type="curve"/>
      <point x="350" y="690"/>
      <point x="370" y="700"/>
      <point x="370" y="750" type="curve"/>
      <point x="220" y="750" type="line"/>
      <point x="220" y="700"/>
      <point x="120" y="650"/>
      <point x="20" y="650" type="curve"/>
      <point x="20" y="630"/>
      <point x="30" y="620"/>
      <point x="30" y="575" type="curve" smooth="yes"/>
      <point x="30" y="530"/>
      <point x="20" y="519"/>
      <point x="20" y="500" type="curve"/>
      <point x="30" y="500"/>
      <point x="40" y="510"/>
      <point x="70" y="510" type="curve"/>
      <point x="120" y="510"/>
      <point x="140" y="450"/>
    </contour>
  </outline>
</glyph>
<glyph name="four" format="1">
  <advance width="750"/>
  <unicode hex="0034"/>
  <outline>
    <contour>
      <point x="220" y="0" type="line"/>
      <point x="220" y="20"/>
      <point x="230" y="30"/>
      <point x="230" y="71" type="curve"/>
      <point x="230" y="120"/>
      <point x="220" y="130"/>
      <point x="220" y="150" type="curve"/>
      <point x="230" y="150"/>
      <point x="240" y="140"/>
      <point x="270" y="140" type="curve"/>
      <point x="320" y="140"/>
      <point x="333" y="260"/>
      <point x="333" y="270" type="curve"/>
      <point x="70" y="270"/>
      <point x="40" y="250"/>
      <point x="20" y="250" type="curve"/>
      <point x="20" y="270"/>
      <point x="30" y="290"/>
      <point x="30" y="330" type="curve"/>
      <point x="30" y="370"/>
      <point x="20" y="380"/>
      <point x="20" y="400" type="curve"/>
      <point x="70" y="400"/>
      <point x="370" y="700"/>
      <point x="370" y="750" type="curve"/>
      <point x="570" y="750" type="line"/>
      <point x="570" y="700"/>
      <point x="550" y="690"/>
      <point x="550" y="390" type="curve"/>
      <point x="640" y="390"/>
      <point x="650" y="400"/>
      <point x="670" y="400" type="curve"/>
      <point x="670" y="380"/>
      <point x="660" y="370"/>
      <point x="660" y="330" type="curve"/>
      <point x="660" y="290"/>
      <point x="670" y="270"/>
      <point x="670" y="250" type="curve"/>
      <point x="650" y="250"/>
      <point x="643" y="270"/>
      <point x="557" y="270" type="curve"/>
      <point x="557" y="260"/>
      <point x="570" y="140"/>
      <point x="620" y="140" type="curve"/>
      <point x="650" y="140"/>
      <point x="660" y="150"/>
      <point x="670" y="150" type="curve"/>
      <point x="670" y="130"/>
      <point x="660" y="120"/>
      <point x="660" y="75" type="curve"/>
      <point x="660" y="30"/>
      <point x="670" y="20"/>
      <point x="670" y="0" type="curve"/>
    </contour>
    <contour>
      <point x="370" y="390" type="line"/>
      <point x="370" y="510" type="line"/>
      <point x="250" y="390" type="line"/>
    </contour>
  </outline>
</glyph>
<glyph name="six" format="1">
  <advance width="700"/>
  <unicode hex="0036"/>
  <outline>
    <contour>
      <point x="170" y="750" type="line"/>
      <point x="170" y="700"/>
      <point x="70" y="600"/>
      <point x="20" y="600" type="curve"/>
      <point x="20" y="580"/>
      <point x="40" y="570"/>
      <point x="40" y="375" type="curve"/>
      <point x="40" y="180"/>
      <point x="20" y="170"/>
      <point x="20" y="150" type="curve"/>
      <point x="70" y="150"/>
      <point x="170" y="50"/>
      <point x="170" y="0" type="curve"/>
      <point x="470" y="0" type="line"/>
      <point x="470" y="50"/>
      <point x="570" y="150"/>
      <point x="620" y="150" type="curve"/>
      <point x="620" y="350" type="line"/>
      <point x="570" y="350"/>
      <point x="470" y="400"/>
      <point x="470" y="450" type="curve"/>
      <point x="320" y="450" type="line"/>
      <point x="320" y="430"/>
      <point x="245" y="400"/>
      <point x="225" y="400" type="curve"/>
      <point x="225" y="550"/>
      <point x="270" y="610"/>
      <point x="350" y="610" type="curve"/>
      <point x="400" y="610"/>
      <point x="430" y="590"/>
      <point x="430" y="550" type="curve"/>
      <point x="430" y="530"/>
      <point x="420" y="520"/>
      <point x="420" y="500" type="curve"/>
      <point x="440" y="500"/>
      <point x="450" y="510"/>
      <point x="520" y="510" type="curve"/>
      <point x="590" y="510"/>
      <point x="600" y="501"/>
      <point x="620" y="500" type="curve"/>
      <point x="620" y="520"/>
      <point x="610" y="530"/>
      <point x="610" y="575" type="curve"/>
      <point x="610" y="620"/>
      <point x="620" y="630"/>
      <point x="620" y="650" type="curve"/>
      <point x="570" y="650"/>
      <point x="470" y="700"/>
      <point x="470" y="750" type="curve"/>
    </contour>
    <contour>
      <point x="270" y="140"/>
      <point x="245" y="175"/>
      <point x="245" y="225" type="curve"/>
      <point x="245" y="275"/>
      <point x="270" y="310"/>
      <point x="320" y="310" type="curve"/>
      <point x="370" y="310"/>
      <point x="395" y="275"/>
      <point x="395" y="225" type="curve"/>
      <point x="395" y="175"/>
      <point x="370" y="140"/>
      <point x="320" y="140" type="curve"/>
    </contour>
  </outline>
</glyph>
<glyph name="greater" format="1">
  <advance width="600"/>
  <unicode hex="003E"/>
  <outline>
    <contour>
      <point x="520" y="475" type="curve"/>
      <point x="520" y="455"/>
      <point x="510" y="445"/>
      <point x="510" y="375" type="curve"/>
      <point x="510" y="305"/>
      <point x="520" y="295"/>
      <point x="520" y="275" type="curve"/>
      <point x="420" y="275"/>
      <point x="40" y="100"/>
      <point x="20" y="100" type="curve"/>
      <point x="20" y="120"/>
      <point x="30" y="130"/>
      <point x="30" y="200" type="curve"/>
      <point x="30" y="270"/>
      <point x="20" y="280"/>
      <point x="20" y="300" type="curve"/>
      <point x="70" y="300"/>
      <point x="240" y="360"/>
      <point x="240" y="375" type="curve"/>
      <point x="240" y="390"/>
      <point x="70" y="450"/>
      <point x="20" y="450" type="curve"/>
      <point x="20" y="470"/>
      <point x="30" y="480"/>
      <point x="30" y="549" type="curve"/>
      <point x="30" y="620"/>
      <point x="20" y="630"/>
      <point x="20" y="650" type="curve"/>
      <point x="30" y="650"/>
      <point x="420" y="475"/>
    </contour>
  </outline>
</glyph>
<glyph name="D" format="1">
  <advance width="850"/>
  <unicode hex="0044"/>
  <outline>
    <contour>
      <point x="770" y="150" type="curve"/>
      <point x="770" y="200"/>
      <point x="750" y="210"/>
      <point x="750" y="375" type="curve"/>
      <point x="750" y="540"/>
      <point x="770" y="550"/>
      <point x="770" y="600" type="curve"/>
      <point x="720" y="600"/>
      <point x="570" y="700"/>
      <point x="570" y="750" type="curve"/>
      <point x="20" y="750" type="line"/>
      <point x="20" y="730"/>
      <point x="30" y="720"/>
      <point x="30" y="675" type="curve" smooth="yes"/>
      <point x="30" y="630"/>
      <point x="20" y="620"/>
      <point x="20" y="600" type="curve"/>
      <point x="30" y="600"/>
      <point x="40" y="610"/>
      <point x="70" y="610" type="curve"/>
      <point x="120" y="610"/>
      <point x="140" y="480"/>
      <point x="140" y="375" type="curve"/>
      <point x="140" y="270"/>
      <point x="120" y="140"/>
      <point x="70" y="140" type="curve"/>
      <point x="40" y="140"/>
      <point x="30" y="150"/>
      <point x="20" y="150" type="curve"/>
      <point x="20" y="130"/>
      <point x="30" y="120"/>
      <point x="30" y="75" type="curve" smooth="yes"/>
      <point x="30" y="30"/>
      <point x="20" y="20"/>
      <point x="20" y="0" type="curve"/>
      <point x="570" y="0" type="line"/>
      <point x="570" y="50"/>
      <point x="720" y="150"/>
    </contour>
    <contour>
      <point x="445" y="140" type="curve"/>
      <point x="375" y="140"/>
      <point x="350" y="210"/>
      <point x="350" y="375" type="curve"/>
      <point x="350" y="540"/>
      <point x="375" y="610"/>
      <point x="445" y="610" type="curve"/>
      <point x="515" y="610"/>
      <point x="540" y="539"/>
      <point x="540" y="374" type="curve"/>
      <point x="540" y="209"/>
      <point x="515" y="140"/>
    </contour>
  </outline>
</glyph>
<glyph name="T" format="1">
  <advance width="950"/>
  <unicode hex="0054"/>
  <outline>
    <contour>
      <point x="220" y="0" type="line"/>
      <point x="220" y="20"/>
      <point x="230" y="25"/>
      <point x="230" y="75" type="curve" smooth="yes"/>
      <point x="230" y="126"/>
      <point x="220" y="130"/>
      <point x="220" y="150" type="curve"/>
      <point x="230" y="150"/>
      <point x="240" y="140"/>
      <point x="270" y="140" type="curve"/>
      <point x="320" y="140"/>
      <point x="340" y="270"/>
      <point x="340" y="375" type="curve"/>
      <point x="340" y="530"/>
      <point x="320" y="610"/>
      <point x="250" y="610" type="curve" smooth="yes"/>
      <point x="220" y="610"/>
      <point x="200" y="585"/>
      <point x="200" y="550" type="curve" smooth="yes"/>
      <point x="200" y="480"/>
      <point x="220" y="470"/>
      <point x="220" y="450" type="curve"/>
      <point x="200" y="450"/>
      <point x="190" y="460"/>
      <point x="120" y="460" type="curve"/>
      <point x="50" y="460"/>
      <point x="40" y="450"/>
      <point x="20" y="450" type="curve"/>
      <point x="20" y="470"/>
      <point x="30" y="480"/>
      <point x="30" y="600" type="curve" smooth="yes"/>
      <point x="30" y="720"/>
      <point x="20" y="730"/>
      <point x="20" y="750" type="curve"/>
      <point x="870" y="750" type="line"/>
      <point x="870" y="730"/>
      <point x="860" y="720"/>
      <point x="860" y="600" type="curve"/>
      <point x="860" y="480"/>
      <point x="870" y="470"/>
      <point x="870" y="450" type="curve"/>
      <point x="850" y="450"/>
      <point x="840" y="460"/>
      <point x="770" y="460" type="curve" smooth="yes"/>
      <point x="700" y="460"/>
      <point x="690" y="450"/>
      <point x="670" y="450" type="curve"/>
      <point x="670" y="470"/>
      <point x="690" y="480"/>
      <point x="690" y="550" type="curve" smooth="yes"/>
      <point x="690" y="580"/>
      <point x="670" y="610"/>
      <point x="640" y="610" type="curve"/>
      <point x="570" y="610"/>
      <point x="550" y="530"/>
      <point x="550" y="375" type="curve"/>
      <point x="550" y="270"/>
      <point x="570" y="140"/>
      <point x="620" y="140" type="curve"/>
      <point x="640" y="140"/>
      <point x="660" y="150"/>
      <point x="670" y="150" type="curve"/>
      <point x="670" y="130"/>
      <point x="660" y="125"/>
      <point x="660" y="75" type="curve" smooth="yes"/>
      <point x="660" y="25"/>
      <point x="670" y="20"/>
      <point x="670" y="0" type="curve"/>
    </contour>
  </outline>
</glyph>
<glyph name="V" format="1">
  <advance width="950"/>
  <unicode hex="0056"/>
  <outline>
    <contour>
      <point x="570" y="100"/>
      <point x="720" y="610"/>
      <point x="820" y="610" type="curve" smooth="yes"/>
      <point x="851" y="610"/>
      <point x="860" y="600"/>
      <point x="870" y="600" type="curve"/>
      <point x="870" y="620"/>
      <point x="860" y="624"/>
      <point x="860" y="675" type="curve" smooth="yes"/>
      <point x="860" y="724"/>
      <point x="870" y="732"/>
      <point x="870" y="750" type="curve"/>
      <point x="520" y="750" type="line"/>
      <point x="520" y="730"/>
      <point x="530" y="725"/>
      <point x="530" y="675" type="curve"/>
      <point x="530" y="625"/>
      <point x="520" y="620"/>
      <point x="520" y="600" type="curve"/>
      <point x="530" y="600"/>
      <point x="540" y="610"/>
      <point x="570" y="610" type="curve" smooth="yes"/>
      <point x="600" y="610"/>
      <point x="610" y="580"/>
      <point x="610" y="550" type="curve" smooth="yes"/>
      <point x="610" y="450"/>
      <point x="510" y="250"/>
      <point x="495" y="250" type="curve"/>
      <point x="480" y="250"/>
      <point x="380" y="450"/>
      <point x="380" y="550" type="curve" smooth="yes"/>
      <point x="380" y="580"/>
      <point x="390" y="610"/>
      <point x="420" y="610" type="curve" smooth="yes"/>
      <point x="450" y="610"/>
      <point x="460" y="600"/>
      <point x="470" y="600" type="curve"/>
      <point x="470" y="620"/>
      <point x="460" y="625"/>
      <point x="460" y="675" type="curve"/>
      <point x="460" y="725"/>
      <point x="470" y="730"/>
      <point x="470" y="750" type="curve"/>
      <point x="20" y="750" type="line"/>
      <point x="20" y="730"/>
      <point x="30" y="725"/>
      <point x="30" y="675" type="curve"/>
      <point x="30" y="625"/>
      <point x="20" y="620"/>
      <point x="20" y="600" type="curve"/>
      <point x="30" y="600"/>
      <point x="40" y="610"/>
      <point x="70" y="610" type="curve" smooth="yes"/>
      <point x="170" y="610"/>
      <point x="320" y="99"/>
      <point x="320" y="0" type="curve"/>
      <point x="570" y="0" type="line"/>
    </contour>
  </outline>
</glyph>
<glyph name="underscore" format="1">
  <advance width="600"/>
  <unicode hex="005F"/>
  <outline>
    <contour>
      <point x="520" y="0" type="curve"/>
      <point x="500" y="0"/>
      <point x="490" y="-10"/>
      <point x="270" y="-10" type="curve"/>
      <point x="50" y="-10"/>
      <point x="40" y="0"/>
      <point x="20" y="0" type="curve"/>
      <point x="20" y="-20"/>
      <point x="30" y="-30"/>
      <point x="30" y="-75" type="curve"/>
      <point x="30" y="-120"/>
      <point x="20" y="-130"/>
      <point x="20" y="-150" type="curve"/>
      <point x="40" y="-150"/>
      <point x="50" y="-140"/>
      <point x="270" y="-140" type="curve"/>
      <point x="490" y="-140"/>
      <point x="500" y="-150"/>
      <point x="520" y="-150" type="curve"/>
      <point x="520" y="-130"/>
      <point x="510" y="-120"/>
      <point x="510" y="-75" type="curve"/>
      <point x="510" y="-30"/>
      <point x="520" y="-20"/>
    </contour>
  </outline>
</glyph>
<glyph name="grave" format="1">
  <advance width="300"/>
  <unicode hex="0060"/>
  <outline>
    <contour>
      <point x="170" y="800" type="curve"/>
      <point x="220" y="850" type="line"/>
      <point x="185" y="884"/>
      <point x="114" y="994"/>
      <point x="120" y="1000" type="curve"/>
      <point x="20" y="900" type="line"/>
      <point x="27" y="907"/>
      <point x="136" y="835"/>
    </contour>
  </outline>
</glyph>
<glyph name="g" format="1">
  <advance width="750"/>
  <unicode hex="0067"/>
  <outline>
    <contour>
      <point x="170" y="225" type="curve"/>
      <point x="170" y="215"/>
      <point x="70" y="150"/>
      <point x="20" y="150" type="curve"/>
      <point x="20" y="130"/>
      <point x="30" y="120"/>
      <point x="30" y="50" type="curve"/>
      <point x="30" y="-20"/>
      <point x="20" y="-30"/>
      <point x="20" y="-50" type="curve"/>
      <point x="70" y="-50"/>
      <point x="170" y="-150"/>
      <point x="170" y="-200" type="curve"/>
      <point x="520" y="-200" type="line"/>
      <point x="520" y="-150"/>
      <point x="619" y="-100"/>
      <point x="670" y="-100" type="curve"/>
      <point x="670" y="-80"/>
      <point x="660" y="-70"/>
      <point x="660" y="-25" type="curve"/>
      <point x="660" y="20"/>
      <point x="670" y="30"/>
      <point x="670" y="50" type="curve"/>
      <point x="620" y="50"/>
      <point x="570" y="100"/>
      <point x="570" y="150" type="curve"/>
      <point x="550" y="150"/>
      <point x="540" y="140"/>
      <point x="445" y="140" type="curve" smooth="yes"/>
      <point x="350" y="140"/>
      <point x="310" y="150"/>
      <point x="310" y="175" type="curve"/>
      <point x="310" y="200"/>
      <point x="350" y="210"/>
      <point x="395" y="210" type="curve"/>
      <point x="440" y="210"/>
      <point x="450" y="200"/>
      <point x="470" y="200" type="curve"/>
      <point x="470" y="250"/>
      <point x="520" y="300"/>
      <point x="570" y="300" type="curve"/>
      <point x="570" y="320"/>
      <point x="560" y="330"/>
      <point x="560" y="375" type="curve" smooth="yes"/>
      <point x="560" y="420"/>
      <point x="580" y="460"/>
      <point x="620" y="460" type="curve"/>
      <point x="650" y="460"/>
      <point x="660" y="450"/>
      <point x="670" y="450" type="curve"/>
      <point x="670" y="470"/>
      <point x="660" y="480"/>
      <point x="660" y="525" type="curve"/>
      <point x="660" y="570"/>
      <point x="670" y="580"/>
      <point x="670" y="600" type="curve"/>
      <point x="560" y="600" type="line"/>
      <point x="560" y="580"/>
      <point x="530" y="540"/>
      <point x="520" y="540" type="curve"/>
      <point x="510" y="540"/>
      <point x="480" y="580"/>
      <point x="480" y="600" type="curve"/>
      <point x="170" y="600" type="line"/>
      <point x="170" y="550"/>
      <point x="70" y="450"/>
      <point x="20" y="450" type="curve"/>
      <point x="20" y="430"/>
      <point x="30" y="420"/>
      <point x="30" y="375" type="curve"/>
      <point x="30" y="330"/>
      <point x="20" y="320"/>
      <point x="20" y="300" type="curve"/>
      <point x="70" y="300"/>
      <point x="170" y="235"/>
    </contour>
    <contour>
      <point x="245" y="320"/>
      <point x="220" y="350"/>
      <point x="220" y="400" type="curve"/>
      <point x="220" y="450"/>
      <point x="245" y="480"/>
      <point x="295" y="480" type="curve"/>
      <point x="345" y="480"/>
      <point x="370" y="450"/>
      <point x="370" y="400" type="curve"/>
      <point x="370" y="350"/>
      <point x="345" y="320"/>
      <point x="295" y="320" type="curve"/>
    </contour>
    <contour>
      <point x="270" y="-60"/>
      <point x="220" y="-40"/>
      <point x="220" y="0" type="curve"/>
      <point x="220" y="40"/>
      <point x="270" y="60"/>
      <point x="345" y="60" type="curve"/>
      <point x="420" y="60"/>
      <point x="470" y="40"/>
      <point x="470" y="0" type="curve"/>
      <point x="470" y="-40"/>
      <point x="420" y="-60"/>
      <point x="345" y="-60" type="curve"/>
    </contour>
  </outline>
</glyph>
<glyph name="j" format="1">
  <advance width="400"/>
  <unicode hex="006A"/>
  <outline>
    <contour>
      <point x="140" y="200" type="curve"/>
      <point x="140" y="20"/>
      <point x="120" y="-60"/>
      <point x="70" y="-60" type="curve"/>
      <point x="40" y="-60"/>
      <point x="30" y="-50"/>
      <point x="20" y="-50" type="curve"/>
      <point x="20" y="-70"/>
      <point x="30" y="-80"/>
      <point x="30" y="-125" type="curve" smooth="yes"/>
      <point x="30" y="-170"/>
      <point x="20" y="-180"/>
      <point x="20" y="-200" type="curve"/>
      <point x="220" y="-200" type="line"/>
      <point x="220" y="-150"/>
      <point x="270" y="-50"/>
      <point x="320" y="-50" type="curve"/>
      <point x="320" y="-30"/>
      <point x="300" y="-20"/>
      <point x="300" y="275" type="curve"/>
      <point x="300" y="570"/>
      <point x="320" y="580"/>
      <point x="320" y="600" type="curve"/>
      <point x="300" y="600"/>
      <point x="290" y="590"/>
      <point x="170" y="590" type="curve"/>
      <point x="50" y="590"/>
      <point x="40" y="600"/>
      <point x="20" y="600" type="curve"/>
      <point x="20" y="580"/>
      <point x="30" y="570"/>
      <point x="30" y="525" type="curve" smooth="yes"/>
      <point x="30" y="480"/>
      <point x="20" y="470"/>
      <point x="20" y="450" type="curve"/>
      <point x="30" y="450"/>
      <point x="40" y="460"/>
      <point x="70" y="460" type="curve"/>
      <point x="120" y="460"/>
      <point x="140" y="380"/>
    </contour>
    <contour>
      <point x="300" y="800" type="line"/>
      <point x="300" y="780"/>
      <point x="290" y="770"/>
      <point x="290" y="725" type="curve"/>
      <point x="290" y="680"/>
      <point x="300" y="670"/>
      <point x="300" y="650" type="curve"/>
      <point x="280" y="650"/>
      <point x="270" y="660"/>
      <point x="210" y="660" type="curve"/>
      <point x="150" y="660"/>
      <point x="140" y="650"/>
      <point x="120" y="650" type="curve"/>
      <point x="120" y="670"/>
      <point x="130" y="680"/>
      <point x="130" y="725" type="curve"/>
      <point x="130" y="770"/>
      <point x="120" y="780"/>
      <point x="120" y="800" type="curve"/>
    </contour>
  </outline>
</glyph>
<glyph name="k" format="1">
  <advance width="850"/>
  <unicode hex="006B"/>
  <outline>
    <contour>
      <point x="360" y="75" type="curve" smooth="yes"/>
      <point x="360" y="120"/>
      <point x="370" y="130"/>
      <point x="370" y="150" type="curve"/>
      <point x="360" y="150"/>
      <point x="350" y="140"/>
      <point x="340" y="140" type="curve"/>
      <point x="330" y="140"/>
      <point x="320" y="150"/>
      <point x="320" y="160" type="curve" smooth="yes"/>
      <point x="320" y="200"/>
      <point x="385" y="250"/>
      <point x="395" y="250" type="curve"/>
      <point x="403" y="250"/>
      <point x="470" y="200"/>
      <point x="470" y="160" type="curve" smooth="yes"/>
      <point x="470" y="150"/>
      <point x="460" y="140"/>
      <point x="450" y="140" type="curve"/>
      <point x="440" y="140"/>
      <point x="430" y="150"/>
      <point x="420" y="150" type="curve"/>
      <point x="420" y="130"/>
      <point x="430" y="121"/>
      <point x="430" y="75" type="curve" smooth="yes"/>
      <point x="430" y="30"/>
      <point x="420" y="20"/>
      <point x="420" y="0" type="curve"/>
      <point x="770" y="0" type="line"/>
      <point x="770" y="20"/>
      <point x="760" y="30"/>
      <point x="760" y="75" type="curve"/>
      <point x="760" y="120"/>
      <point x="770" y="130"/>
      <point x="770" y="150" type="curve"/>
      <point x="760" y="150"/>
      <point x="750" y="140"/>
      <point x="720" y="140" type="curve"/>
      <point x="670" y="140"/>
      <point x="495" y="328"/>
      <point x="495" y="345" type="curve"/>
      <point x="495" y="361"/>
      <point x="620" y="460"/>
      <point x="670" y="460" type="curve"/>
      <point x="700" y="460"/>
      <point x="710" y="450"/>
      <point x="720" y="450" type="curve"/>
      <point x="720" y="470"/>
      <point x="710" y="480"/>
      <point x="710" y="525" type="curve"/>
      <point x="710" y="570"/>
      <point x="720" y="580"/>
      <point x="720" y="600" type="curve"/>
      <point x="370" y="600" type="line"/>
      <point x="370" y="580"/>
      <point x="380" y="570"/>
      <point x="380" y="525" type="curve"/>
      <point x="380" y="480"/>
      <point x="370" y="470"/>
      <point x="370" y="450" type="curve"/>
      <point x="380" y="450"/>
      <point x="390" y="460"/>
      <point x="420" y="460" type="curve"/>
      <point x="440" y="460"/>
      <point x="450" y="440"/>
      <point x="450" y="430" type="curve"/>
      <point x="450" y="390"/>
      <point x="330" y="315"/>
      <point x="310" y="315" type="curve"/>
      <point x="300" y="315"/>
      <point x="300" y="430"/>
      <point x="300" y="450" type="curve" smooth="yes"/>
      <point x="300" y="660"/>
      <point x="340" y="780"/>
      <point x="340" y="800" type="curve"/>
      <point x="320" y="800"/>
      <point x="290" y="790"/>
      <point x="170" y="790" type="curve"/>
      <point x="50" y="790"/>
      <point x="40" y="800"/>
      <point x="20" y="800" type="curve"/>
      <point x="20" y="780"/>
      <point x="30" y="770"/>
      <point x="30" y="725" type="curve" smooth="yes"/>
      <point x="30" y="680"/>
      <point x="20" y="670"/>
      <point x="20" y="650" type="curve"/>
      <point x="30" y="650"/>
      <point x="40" y="660"/>
      <point x="70" y="660" type="curve"/>
      <point x="120" y="660"/>
      <point x="140" y="550"/>
      <point x="140" y="400" type="curve"/>
      <point x="140" y="270"/>
      <point x="120" y="140"/>
      <point x="70" y="140" type="curve"/>
      <point x="40" y="140"/>
      <point x="30" y="150"/>
      <point x="20" y="150" type="curve"/>
      <point x="20" y="130"/>
      <point x="30" y="120"/>
      <point x="30" y="75" type="curve" smooth="yes"/>
      <point x="30" y="30"/>
      <point x="20" y="20"/>
      <point x="20" y="0" type="curve"/>
      <point x="370" y="0" type="line"/>
      <point x="370" y="20"/>
      <point x="360" y="30"/>
    </contour>
  </outline>
</glyph>
<glyph name="l" format="1">
  <advance width="500"/>
  <unicode hex="006C"/>
  <outline>
    <contour>
      <point x="140" y="400" type="curve"/>
      <point x="140" y="270"/>
      <point x="120" y="140"/>
      <point x="70" y="140" type="curve"/>
      <point x="40" y="140"/>
      <point x="30" y="150"/>
      <point x="20" y="150" type="curve"/>
      <point x="20" y="130"/>
      <point x="30" y="120"/>
      <point x="30" y="75" type="curve" smooth="yes"/>
      <point x="30" y="30"/>
      <point x="20" y="20"/>
      <point x="20" y="0" type="curve"/>
      <point x="420" y="0" type="line"/>
      <point x="420" y="20"/>
      <point x="410" y="30"/>
      <point x="410" y="75" type="curve" smooth="yes"/>
      <point x="410" y="120"/>
      <point x="420" y="130"/>
      <point x="420" y="150" type="curve"/>
      <point x="410" y="150"/>
      <point x="400" y="140"/>
      <point x="370" y="140" type="curve"/>
      <point x="320" y="140"/>
      <point x="300" y="250"/>
      <point x="300" y="450" type="curve"/>
      <point x="300" y="650"/>
      <point x="340" y="780"/>
      <point x="340" y="800" type="curve"/>
      <point x="320" y="800"/>
      <point x="290" y="790"/>
      <point x="170" y="790" type="curve"/>
      <point x="50" y="790"/>
      <point x="40" y="800"/>
      <point x="20" y="800" type="curve"/>
      <point x="20" y="780"/>
      <point x="30" y="770"/>
      <point x="30" y="725" type="curve" smooth="yes"/>
      <point x="30" y="680"/>
      <point x="20" y="670"/>
      <point x="20" y="650" type="curve"/>
      <point x="30" y="650"/>
      <point x="40" y="660"/>
      <point x="70" y="660" type="curve"/>
      <point x="120" y="660"/>
      <point x="140" y="550"/>
    </contour>
  </outline>
</glyph>
<glyph name="braceleft" format="1">
  <advance width="420"/>
  <unicode hex="007B"/>
  <outline>
    <contour>
      <point x="40" y="100" type="curve"/>
      <point x="90" y="100"/>
      <point x="190" y="0"/>
      <point x="190" y="-50" type="curve"/>
      <point x="340" y="-50" type="line"/>
      <point x="340" y="-30"/>
      <point x="330" y="-20"/>
      <point x="330" y="25" type="curve" smooth="yes"/>
      <point x="330" y="70"/>
      <point x="340" y="80"/>
      <point x="340" y="100" type="curve"/>
      <point x="330" y="100"/>
      <point x="320" y="90"/>
      <point x="290" y="90" type="curve"/>
      <point x="240" y="90"/>
      <point x="220" y="270"/>
      <point x="220" y="375" type="curve"/>
      <point x="220" y="480"/>
      <point x="240" y="660"/>
      <point x="290" y="660" type="curve"/>
      <point x="320" y="660"/>
      <point x="330" y="650"/>
      <point x="340" y="650" type="curve"/>
      <point x="340" y="670"/>
      <point x="330" y="680"/>
      <point x="330" y="725" type="curve" smooth="yes"/>
      <point x="330" y="770"/>
      <point x="340" y="780"/>
      <point x="340" y="800" type="curve"/>
      <point x="190" y="800" type="line"/>
      <point x="190" y="750"/>
      <point x="90" y="650"/>
      <point x="40" y="650" type="curve"/>
      <point x="40" y="630"/>
      <point x="70" y="620"/>
      <point x="70" y="450" type="curve" smooth="yes"/>
      <point x="70" y="400"/>
      <point x="20" y="380"/>
      <point x="20" y="375" type="curve"/>
      <point x="20" y="370"/>
      <point x="70" y="350"/>
      <point x="70" y="300" type="curve" smooth="yes"/>
      <point x="70" y="130"/>
      <point x="40" y="120"/>
    </contour>
  </outline>
</glyph>
<glyph name="exclamdown" format="1">
  <advance width="450"/>
  <unicode hex="00A1"/>
  <outline>
    <contour>
      <point x="20" y="-150" type="line"/>
      <point x="40" y="-150"/>
      <point x="170" y="220"/>
      <point x="170" y="375" type="curve"/>
      <point x="180" y="375"/>
      <point x="192" y="400"/>
      <point x="195" y="400" type="curve"/>
      <point x="198" y="400"/>
      <point x="210" y="375"/>
      <point x="220" y="375" type="curve"/>
      <point x="220" y="220"/>
      <point x="350" y="-150"/>
      <point x="370" y="-150" type="curve"/>
    </contour>
    <contour>
      <point x="120" y="600" type="curve"/>
      <point x="270" y="600" type="line"/>
      <point x="270" y="580"/>
      <point x="260" y="575"/>
      <point x="260" y="524" type="curve"/>
      <point x="260" y="475"/>
      <point x="270" y="470"/>
      <point x="270" y="450" type="curve"/>
      <point x="250" y="450"/>
      <point x="245" y="460"/>
      <point x="195" y="460" type="curve"/>
      <point x="145" y="460"/>
      <point x="140" y="450"/>
      <point x="120" y="450" type="curve"/>
      <point x="120" y="470"/>
      <point x="130" y="475"/>
      <point x="130" y="525" type="curve"/>
      <point x="130" y="575"/>
      <point x="120" y="580"/>
    </contour>
  </outline>
</glyph>
<glyph name="sterling" format="1">
  <advance width="950"/>
  <unicode hex="00A3"/>
  <outline>
    <contour>
      <point x="870" y="0" type="line"/>
      <point x="870" y="20"/>
      <point x="861" y="30"/>
      <point x="861" y="75" type="curve" smooth="yes"/>
      <point x="861" y="120"/>
      <point x="870" y="130"/>
      <point x="870" y="150" type="curve"/>
      <point x="850" y="150"/>
      <point x="840" y="140"/>
      <point x="820" y="140" type="curve" smooth="yes"/>
      <point x="780" y="140"/>
      <point x="760" y="160"/>
      <point x="760" y="225" type="curve" smooth="yes"/>
      <point x="760" y="270"/>
      <point x="770" y="280"/>
      <point x="770" y="300" type="curve"/>
      <point x="750" y="300"/>
      <point x="742" y="290"/>
      <point x="672" y="290" type="curve"/>
      <point x="602" y="290"/>
      <point x="590" y="300"/>
      <point x="570" y="300" type="curve"/>
      <point x="570" y="280"/>
      <point x="580" y="270"/>
      <point x="580" y="230" type="curve" smooth="yes"/>
      <point x="580" y="180"/>
      <point x="550" y="140"/>
      <point x="470" y="140" type="curve"/>
      <point x="390" y="140"/>
      <point x="350" y="190"/>
      <point x="350" y="250" type="curve" smooth="yes"/>
      <point x="350" y="290"/>
      <point x="380" y="310"/>
      <point x="410" y="310" type="curve"/>
      <point x="440" y="310"/>
      <point x="450" y="300"/>
      <point x="470" y="300" type="curve"/>
      <point x="470" y="320"/>
      <point x="460" y="330"/>
      <point x="460" y="375" type="curve"/>
      <point x="460" y="420"/>
      <point x="470" y="430"/>
      <point x="470" y="450" type="curve"/>
      <point x="450" y="450"/>
      <point x="440" y="440"/>
      <point x="410" y="440" type="curve"/>
      <point x="380" y="440"/>
      <point x="350" y="460"/>
      <point x="350" y="500" type="curve" smooth="yes"/>
      <point x="350" y="560"/>
      <point x="390" y="610"/>
      <point x="470" y="610" type="curve"/>
      <point x="550" y="610"/>
      <point x="580" y="570"/>
      <point x="580" y="520" type="curve" smooth="yes"/>
      <point x="580" y="480"/>
      <point x="570" y="470"/>
      <point x="570" y="450" type="curve"/>
      <point x="590" y="450"/>
      <point x="602" y="460"/>
      <point x="672" y="460" type="curve"/>
      <point x="742" y="460"/>
      <point x="750" y="450"/>
      <point x="770" y="450" type="curve"/>
      <point x="770" y="470"/>
      <point x="760" y="480"/>
      <point x="760" y="525" type="curve" smooth="yes"/>
      <point x="760" y="570"/>
      <point x="770" y="580"/>
      <point x="770" y="600" type="curve"/>
      <point x="720" y="600"/>
      <point x="620" y="700"/>
      <point x="620" y="750" type="curve"/>
      <point x="270" y="750" type="line"/>
      <point x="270" y="700"/>
      <point x="170" y="600"/>
      <point x="120" y="600" type="curve"/>
      <point x="120" y="580"/>
      <point x="140" y="570"/>
      <point x="140" y="526" type="curve" smooth="yes"/>
      <point x="140" y="460"/>
      <point x="110" y="440"/>
      <point x="80" y="440" type="curve" smooth="yes"/>
      <point x="50" y="440"/>
      <point x="40" y="450"/>
      <point x="20" y="450" type="curve"/>
      <point x="20" y="430"/>
      <point x="30" y="420"/>
      <point x="30" y="375" type="curve" smooth="yes"/>
      <point x="30" y="330"/>
      <point x="20" y="320"/>
      <point x="20" y="300" type="curve"/>
      <point x="40" y="300"/>
      <point x="50" y="310"/>
      <point x="80" y="310" type="curve" smooth="yes"/>
      <point x="110" y="310"/>
      <point x="140" y="290"/>
      <point x="140" y="225" type="curve" smooth="yes"/>
      <point x="140" y="160"/>
      <point x="110" y="140"/>
      <point x="70" y="140" type="curve"/>
      <point x="40" y="140"/>
      <point x="30" y="150"/>
      <point x="20" y="150" type="curve"/>
      <point x="20" y="130"/>
      <point x="30" y="120"/>
      <point x="30" y="75" type="curve" smooth="yes"/>
      <point x="30" y="30"/>
      <point x="20" y="20"/>
      <point x="20" y="0" type="curve"/>
      <point x="320" y="0" type="line"/>
      <point x="320" y="20"/>
      <point x="360" y="70"/>
      <point x="370" y="70" type="curve"/>
      <point x="380" y="70"/>
      <point x="420" y="21"/>
      <point x="420" y="0" type="curve"/>
    </contour>
  </outline>
</glyph>
<glyph name="yen" format="1">
  <advance width="950"/>
  <unicode hex="00A5"/>
  <outline>
    <contour>
      <point x="670" y="410" type="curve"/>
      <point x="650" y="410"/>
      <point x="640" y="404"/>
      <point x="445" y="404" type="curve"/>
      <point x="250" y="404"/>
      <point x="240" y="410"/>
      <point x="220" y="410" type="curve"/>
      <point x="220" y="400"/>
      <point x="225" y="390"/>
      <point x="225" y="375" type="curve"/>
      <point x="225" y="360"/>
      <point x="220" y="350"/>
      <point x="220" y="340" type="curve"/>
      <point x="240" y="340"/>
      <point x="250" y="345"/>
      <point x="445" y="345" type="curve"/>
      <point x="640" y="345"/>
      <point x="650" y="340"/>
      <point x="670" y="340" type="curve"/>
      <point x="670" y="350"/>
      <point x="665" y="360"/>
      <point x="665" y="375" type="curve"/>
      <point x="665" y="390"/>
      <point x="670" y="400"/>
    </contour>
    <contour>
      <point x="670" y="310" type="curve"/>
      <point x="650" y="310"/>
      <point x="640" y="304"/>
      <point x="445" y="304" type="curve"/>
      <point x="250" y="304"/>
      <point x="240" y="310"/>
      <point x="220" y="310" type="curve"/>
      <point x="220" y="300"/>
      <point x="225" y="290"/>
      <point x="225" y="275" type="curve"/>
      <point x="225" y="260"/>
      <point x="220" y="250"/>
      <point x="220" y="240" type="curve"/>
      <point x="240" y="240"/>
      <point x="250" y="245"/>
      <point x="445" y="245" type="curve"/>
      <point x="640" y="245"/>
      <point x="650" y="240"/>
      <point x="670" y="240" type="curve"/>
      <point x="670" y="250"/>
      <point x="665" y="260"/>
      <point x="665" y="275" type="curve"/>
      <point x="665" y="290"/>
      <point x="670" y="300"/>
    </contour>
    <component base="Y"/>
  </outline>
</glyph>
<glyph name="section" format="1">
  <advance width="700"/>
  <unicode hex="00A7"/>
  <outline>
    <contour>
      <point x="140" y="0" type="curve"/>
      <point x="20" y="0" type="line"/>
      <point x="20" y="20"/>
      <point x="30" y="30"/>
      <point x="30" y="85" type="curve"/>
      <point x="30" y="140"/>
      <point x="20" y="150"/>
      <point x="20" y="170" type="curve"/>
      <point x="40" y="170"/>
      <point x="50" y="160"/>
      <point x="95" y="160" type="curve"/>
      <point x="140" y="160"/>
      <point x="150" y="170"/>
      <point x="170" y="170" type="curve"/>
      <point x="170" y="140"/>
      <point x="200" y="120"/>
      <point x="280" y="120" type="curve"/>
      <point x="360" y="120"/>
      <point x="390" y="150"/>
      <point x="390" y="175" type="curve"/>
      <point x="390" y="200"/>
      <point x="360" y="230"/>
      <point x="280" y="230" type="curve"/>
      <point x="200" y="230"/>
      <point x="190" y="220"/>
      <point x="170" y="220" type="curve"/>
      <point x="170" y="270"/>
      <point x="70" y="320"/>
      <point x="20" y="320" type="curve"/>
      <point x="20" y="340"/>
      <point x="30" y="350"/>
      <point x="30" y="400" type="curve"/>
      <point x="30" y="450"/>
      <point x="20" y="460"/>
      <point x="20" y="480" type="curve"/>
      <point x="50" y="480"/>
      <point x="80" y="530"/>
      <point x="80" y="620" type="curve"/>
      <point x="80" y="670"/>
      <point x="70" y="680"/>
      <point x="70" y="700" type="curve"/>
      <point x="120" y="700"/>
      <point x="220" y="770"/>
      <point x="220" y="820" type="curve"/>
      <point x="380" y="820" type="line"/>
      <point x="380" y="800"/>
      <point x="410" y="764"/>
      <point x="420" y="764" type="curve"/>
      <point x="430" y="764"/>
      <point x="460" y="800"/>
      <point x="460" y="820" type="curve"/>
      <point x="570" y="820" type="line"/>
      <point x="570" y="800"/>
      <point x="560" y="790"/>
      <point x="560" y="732" type="curve"/>
      <point x="560" y="674"/>
      <point x="570" y="670"/>
      <point x="570" y="650" type="curve"/>
      <point x="550" y="650"/>
      <point x="540" y="660"/>
      <point x="495" y="660" type="curve"/>
      <point x="450" y="660"/>
      <point x="440" y="650"/>
      <point x="420" y="650" type="curve"/>
      <point x="420" y="680"/>
      <point x="390" y="700"/>
      <point x="350" y="700" type="curve"/>
      <point x="290" y="700"/>
      <point x="260" y="670"/>
      <point x="260" y="645" type="curve"/>
      <point x="260" y="620"/>
      <point x="290" y="590"/>
      <point x="370" y="590" type="curve"/>
      <point x="440" y="590"/>
      <point x="450" y="600"/>
      <point x="470" y="600" type="curve"/>
      <point x="470" y="550"/>
      <point x="570" y="500"/>
      <point x="620" y="500" type="curve"/>
      <point x="620" y="480"/>
      <point x="610" y="470"/>
      <point x="610" y="420" type="curve" smooth="yes"/>
      <point x="610" y="370"/>
      <point x="620" y="360"/>
      <point x="620" y="340" type="curve"/>
      <point x="600" y="340"/>
      <point x="560" y="310"/>
      <point x="560" y="220" type="curve"/>
      <point x="560" y="170"/>
      <point x="570" y="140"/>
      <point x="570" y="120" type="curve"/>
      <point x="520" y="120"/>
      <point x="420" y="50"/>
      <point x="420" y="0" type="curve"/>
      <point x="220" y="0" type="line"/>
      <point x="220" y="20"/>
      <point x="190" y="56"/>
      <point x="180" y="56" type="curve"/>
      <point x="170" y="56"/>
      <point x="140" y="20"/>
    </contour>
    <contour>
      <point x="335" y="480" type="curve"/>
      <point x="260" y="480"/>
      <point x="210" y="430"/>
      <point x="210" y="400" type="curve"/>
      <point x="210" y="360"/>
      <point x="255" y="340"/>
      <point x="315" y="340" type="curve"/>
      <point x="390" y="340"/>
      <point x="440" y="395"/>
      <point x="440" y="425" type="curve"/>
      <point x="440" y="455"/>
      <point x="410" y="480"/>
    </contour>
  </outline>
</glyph>
<glyph name="logicalnot" format="1">
  <advance width="700"/>
  <unicode hex="00AC"/>
  <outline>
    <contour>
      <point x="620" y="150" type="curve"/>
      <point x="620" y="170"/>
      <point x="610" y="180"/>
      <point x="610" y="300" type="curve"/>
      <point x="610" y="420"/>
      <point x="620" y="430"/>
      <point x="620" y="450" type="curve"/>
      <point x="600" y="450"/>
      <point x="590" y="440"/>
      <point x="320" y="440" type="curve"/>
      <point x="50" y="440"/>
      <point x="40" y="450"/>
      <point x="20" y="450" type="curve"/>
      <point x="20" y="430"/>
      <point x="30" y="420"/>
      <point x="30" y="375" type="curve"/>
      <point x="30" y="330"/>
      <point x="20" y="320"/>
      <point x="20" y="300" type="curve"/>
      <point x="40" y="300"/>
      <point x="50" y="310"/>
      <point x="245" y="310" type="curve"/>
      <point x="460" y="310"/>
      <point x="480" y="300"/>
      <point x="480" y="225" type="curve"/>
      <point x="480" y="180"/>
      <point x="470" y="170"/>
      <point x="470" y="150" type="curve"/>
      <point x="490" y="150"/>
      <point x="502" y="160"/>
      <point x="545" y="160" type="curve"/>
      <point x="590" y="160"/>
      <point x="600" y="150"/>
    </contour>
  </outline>
</glyph>
<glyph name="cedilla" format="1">
  <advance width="300"/>
  <unicode hex="00B8"/>
  <outline>
    <contour>
      <point x="190" y="50" type="curve"/>
      <point x="120" y="50" type="line"/>
      <point x="120" y="21"/>
      <point x="40" y="-50"/>
      <point x="20" y="-50" type="curve"/>
      <point x="20" y="-60" type="line"/>
      <point x="30" y="-60"/>
      <point x="85" y="-95"/>
      <point x="85" y="-115" type="curve" smooth="yes"/>
      <point x="85" y="-135"/>
      <point x="50" y="-140"/>
      <point x="40" y="-140" type="curve"/>
      <point x="40" y="-143"/>
      <point x="40" y="-147"/>
      <point x="40" y="-150" type="curve"/>
      <point x="60" y="-150"/>
      <point x="90" y="-180"/>
      <point x="90" y="-200" type="curve"/>
      <point x="93" y="-200"/>
      <point x="97" y="-200"/>
      <point x="100" y="-200" type="curve"/>
      <point x="100" y="-180"/>
      <point x="200" y="-110"/>
      <point x="220" y="-110" type="curve"/>
      <point x="220" y="-107"/>
      <point x="220" y="-103"/>
      <point x="220" y="-100" type="curve"/>
      <point x="200" y="-100"/>
      <point x="140" y="-70"/>
      <point x="140" y="-30" type="curve"/>
      <point x="140" y="0"/>
      <point x="190" y="40"/>
    </contour>
  </outline>
</glyph>
<glyph name="ordmasculine" format="1">
  <advance width="220"/>
  <unicode hex="00BA"/>
  <outline>
    <contour>
      <point x="70" y="780" type="curve"/>
      <point x="50" y="780"/>
      <point x="45" y="795"/>
      <point x="45" y="825" type="curve"/>
      <point x="45" y="855"/>
      <point x="50" y="870"/>
      <point x="70" y="870" type="curve"/>
      <point x="90" y="870"/>
      <point x="95" y="855"/>
      <point x="95" y="825" type="curve"/>
      <point x="95" y="795"/>
      <point x="90" y="780"/>
    </contour>
    <contour>
      <point x="40" y="750" type="curve"/>
      <point x="100" y="750" type="line"/>
      <point x="100" y="760"/>
      <point x="130" y="780"/>
      <point x="140" y="780" type="curve"/>
      <point x="140" y="790"/>
      <point x="135" y="800"/>
      <point x="135" y="825" type="curve"/>
      <point x="135" y="850"/>
      <point x="140" y="860"/>
      <point x="140" y="870" type="curve"/>
      <point x="130" y="870"/>
      <point x="100" y="890"/>
      <point x="100" y="900" type="curve"/>
      <point x="40" y="900" type="line"/>
      <point x="40" y="890"/>
      <point x="10" y="870"/>
      <point x="0" y="870" type="curve"/>
      <point x="0" y="860"/>
      <point x="5" y="850"/>
      <point x="5" y="825" type="curve"/>
      <point x="5" y="800"/>
      <point x="0" y="790"/>
      <point x="0" y="780" type="curve"/>
      <point x="10" y="780"/>
      <point x="40" y="760"/>
    </contour>
  </outline>
</glyph>
<glyph name="divide" format="1">
  <advance width="600"/>
  <unicode hex="00F7"/>
  <outline>
    <contour>
      <point x="195" y="100" type="curve"/>
      <point x="195" y="120"/>
      <point x="205" y="130"/>
      <point x="205" y="175" type="curve"/>
      <point x="205" y="220"/>
      <point x="195" y="230"/>
      <point x="195" y="250" type="curve"/>
      <point x="215" y="250"/>
      <point x="225" y="240"/>
      <point x="270" y="240" type="curve"/>
      <point x="315" y="240"/>
      <point x="325" y="250"/>
      <point x="345" y="250" type="curve"/>
      <point x="345" y="230"/>
      <point x="335" y="220"/>
      <point x="335" y="176" type="curve"/>
      <point x="335" y="130"/>
      <point x="345" y="120"/>
      <point x="345" y="100" type="curve"/>
      <point x="325" y="100"/>
      <point x="315" y="110"/>
      <point x="270" y="110" type="curve"/>
      <point x="225" y="110"/>
      <point x="215" y="100"/>
    </contour>
    <contour>
      <point x="195" y="500" type="curve"/>
      <point x="195" y="520"/>
      <point x="205" y="530"/>
      <point x="205" y="575" type="curve"/>
      <point x="205" y="620"/>
      <point x="195" y="630"/>
      <point x="195" y="650" type="curve"/>
      <point x="215" y="650"/>
      <point x="225" y="640"/>
      <point x="270" y="640" type="curve"/>
      <point x="315" y="640"/>
      <point x="325" y="650"/>
      <point x="345" y="650" type="curve"/>
      <point x="345" y="630"/>
      <point x="335" y="620"/>
      <point x="335" y="576" type="curve"/>
      <point x="335" y="530"/>
      <point x="345" y="520"/>
      <point x="345" y="500" type="curve"/>
      <point x="325" y="500"/>
      <point x="315" y="510"/>
      <point x="270" y="510" type="curve"/>
      <point x="225" y="510"/>
      <point x="215" y="500"/>
    </contour>
    <contour>
      <point x="520" y="450" type="curve"/>
      <point x="500" y="450"/>
      <point x="490" y="440"/>
      <point x="270" y="440" type="curve"/>
      <point x="50" y="440"/>
      <point x="40" y="450"/>
      <point x="20" y="450" type="curve"/>
      <point x="20" y="430"/>
      <point x="30" y="420"/>
      <point x="30" y="375" type="curve"/>
      <point x="30" y="330"/>
      <point x="20" y="320"/>
      <point x="20" y="300" type="curve"/>
      <point x="40" y="300"/>
      <point x="50" y="310"/>
      <point x="270" y="310" type="curve"/>
      <point x="490" y="310"/>
      <point x="500" y="300"/>
      <point x="520" y="300" type="curve"/>
      <point x="520" y="320"/>
      <point x="510" y="330"/>
      <point x="510" y="375" type="curve"/>
      <point x="510" y="420"/>
      <point x="520" y="430"/>
    </contour>
  </outline>
</glyph>
<glyph name="quoteright" format="1">
  <advance width="250"/>
  <unicode hex="2019"/>
  <outline>
    <contour>
      <point x="30" y="680"/>
      <point x="20" y="670"/>
      <point x="20" y="650" type="curve"/>
      <point x="40" y="650"/>
      <point x="50" y="658"/>
      <point x="70" y="658" type="curve"/>
      <point x="75" y="658"/>
      <point x="80" y="655"/>
      <point x="80" y="650" type="curve" smooth="yes"/>
      <point x="80" y="630"/>
      <point x="20" y="566"/>
      <point x="20" y="550" type="curve"/>
      <point x="40" y="550"/>
      <point x="130" y="650"/>
      <point x="170" y="650" type="curve"/>
      <point x="170" y="670"/>
      <point x="160" y="680"/>
      <point x="160" y="725" type="curve"/>
      <point x="160" y="770"/>
      <point x="170" y="780"/>
      <point x="170" y="800" type="curve"/>
      <point x="150" y="800"/>
      <point x="140" y="790"/>
      <point x="95" y="790" type="curve"/>
      <point x="50" y="790"/>
      <point x="40" y="800"/>
      <point x="20" y="800" type="curve"/>
      <point x="20" y="780"/>
      <point x="30" y="770"/>
      <point x="30" y="725" type="curve"/>
    </contour>
  </outline>
</glyph>
<glyph name="Z.add_01" format="1">
  <advance width="850"/>
  <outline>
    <contour>
      <point x="240" y="610"/>
      <point x="210" y="575"/>
      <point x="210" y="525" type="curve"/>
      <point x="210" y="475"/>
      <point x="220" y="470"/>
      <point x="220" y="450" type="curve"/>
      <point x="200" y="450"/>
      <point x="190" y="460"/>
      <point x="120" y="460" type="curve"/>
      <point x="50" y="460"/>
      <point x="40" y="450"/>
      <point x="20" y="450" type="curve"/>
      <point x="20" y="480"/>
      <point x="30" y="490"/>
      <point x="30" y="600" type="curve"/>
      <point x="30" y="710"/>
      <point x="20" y="720"/>
      <point x="20" y="750" type="curve"/>
      <point x="620" y="750" type="line"/>
      <point x="620" y="700"/>
      <point x="690" y="650"/>
      <point x="720" y="650" type="curve"/>
      <point x="720" y="630"/>
      <point x="440" y="360"/>
      <point x="440" y="225" type="curve" smooth="yes"/>
      <point x="440" y="175"/>
      <point x="470" y="140"/>
      <point x="510" y="140" type="curve"/>
      <point x="550" y="140"/>
      <point x="580" y="175"/>
      <point x="580" y="225" type="curve"/>
      <point x="580" y="275"/>
      <point x="570" y="280"/>
      <point x="570" y="300" type="curve"/>
      <point x="590" y="300"/>
      <point x="600" y="290"/>
      <point x="670" y="290" type="curve"/>
      <point x="740" y="290"/>
      <point x="750" y="300"/>
      <point x="770" y="300" type="curve"/>
      <point x="770" y="270"/>
      <point x="760" y="260"/>
      <point x="760" y="150" type="curve"/>
      <point x="760" y="40"/>
      <point x="770" y="30"/>
      <point x="770" y="0" type="curve"/>
      <point x="120" y="0" type="line"/>
      <point x="120" y="50"/>
      <point x="50" y="100"/>
      <point x="20" y="100" type="curve"/>
      <point x="20" y="120"/>
      <point x="350" y="391"/>
      <point x="350" y="525" type="curve"/>
      <point x="350" y="575"/>
      <point x="320" y="610"/>
      <point x="280" y="610" type="curve"/>
    </contour>
  </outline>
</glyph>
